<?xml version="1.0" encoding="UTF-8"?>
<svg version="1.1" xmlns="http://www.w3.org/2000/svg" width="369" height="48">
<path d="M0 0 C3.5622231 -0.11654436 7.12395342 -0.1873639 10.6875 -0.25 C12.19860352 -0.30027344 12.19860352 -0.30027344 13.74023438 -0.3515625 C21.2503749 -0.45070627 21.2503749 -0.45070627 25.14453125 1.890625 C28.25101809 5.42221003 28.44098958 8.14895863 28.43359375 12.734375 C27.90938506 15.47348344 27.13291079 16.31602246 25 18.0625 C24.01 18.701875 23.02 19.34125 22 20 C22.63228516 20.87011719 22.63228516 20.87011719 23.27734375 21.7578125 C29 29.91764706 29 29.91764706 29 35 C28.34 35.66 27.68 36.32 27 37 C24.59765625 36.92578125 24.59765625 36.92578125 22 36 C20.12109375 33.85546875 20.12109375 33.85546875 18.4375 31.1875 C14.68332501 24.98212965 14.68332501 24.98212965 8.75 21.25 C8.1725 21.1675 7.595 21.085 7 21 C7.01160156 21.83144531 7.02320313 22.66289062 7.03515625 23.51953125 C7.04417969 24.60621094 7.05320313 25.69289063 7.0625 26.8125 C7.07410156 27.89144531 7.08570313 28.97039063 7.09765625 30.08203125 C7 33 7 33 6 36 C3.03 36.495 3.03 36.495 0 37 C-2.19884566 33.44953024 -2.25765366 30.53540465 -2.265625 26.40625 C-2.26820313 25.12878906 -2.27078125 23.85132812 -2.2734375 22.53515625 C-2.26924805 21.87273926 -2.26505859 21.21032227 -2.26074219 20.52783203 C-2.25003459 18.50653057 -2.26065396 16.48611775 -2.2734375 14.46484375 C-2.27085937 13.18738281 -2.26828125 11.90992188 -2.265625 10.59375 C-2.26336914 9.42521484 -2.26111328 8.25667969 -2.25878906 7.05273438 C-2.01111988 4.13117263 -1.52614218 2.46425738 0 0 Z M7 6 C7 8.97 7 11.94 7 15 C8.60379341 15.05416188 10.20811406 15.09286638 11.8125 15.125 C12.70582031 15.14820313 13.59914062 15.17140625 14.51953125 15.1953125 C17.25402714 15.18285827 17.25402714 15.18285827 20 13 C19.67 11.02 19.34 9.04 19 7 C16.11788698 6.03929566 14.30149956 5.89418117 11.3125 5.9375 C9.889375 5.958125 8.46625 5.97875 7 6 Z " fill="#FFFFFF" transform="translate(154,6)"/>
<path d="M0 0 C3.64285634 0.10284484 5.40409224 0.38137761 7.96630859 3.04125977 C8.52141113 3.91580811 9.07651367 4.79035645 9.6484375 5.69140625 C10.26074219 6.63564453 10.87304688 7.57988281 11.50390625 8.55273438 C12.12136719 9.54595703 12.73882812 10.53917969 13.375 11.5625 C14.01566406 12.55958984 14.65632813 13.55667969 15.31640625 14.58398438 C16.89476758 17.0457569 18.45479287 19.5173334 20 22 C20.01981934 21.40461426 20.03963867 20.80922852 20.06005859 20.19580078 C20.15516126 17.50507847 20.26489842 14.81514852 20.375 12.125 C20.4059375 11.18785156 20.436875 10.25070312 20.46875 9.28515625 C20.50742187 8.38925781 20.54609375 7.49335938 20.5859375 6.5703125 C20.6173584 5.74289551 20.6487793 4.91547852 20.68115234 4.06298828 C21 2 21 2 23 0 C26.53571429 0.53571429 26.53571429 0.53571429 28 2 C28.10091475 4.58189446 28.13971499 7.136465 28.1328125 9.71875 C28.13424759 10.87836243 28.13424759 10.87836243 28.13571167 12.06140137 C28.13639341 13.69897544 28.13453957 15.33655219 28.13037109 16.97412109 C28.12502271 19.48931921 28.13031626 22.00433873 28.13671875 24.51953125 C28.13605797 26.10677123 28.1347768 27.6940111 28.1328125 29.28125 C28.13483673 30.03853394 28.13686096 30.79581787 28.13894653 31.5760498 C28.11495132 36.88504868 28.11495132 36.88504868 27 38 C24.18359375 38.36328125 24.18359375 38.36328125 21 38 C18.91015625 35.98046875 18.91015625 35.98046875 17.0625 33.1875 C16.39347656 32.19492187 15.72445313 31.20234375 15.03515625 30.1796875 C14.36355469 29.13039063 13.69195312 28.08109375 13 27 C12.31808594 25.95070313 11.63617188 24.90140625 10.93359375 23.8203125 C9.26637019 21.22685363 7.62260896 18.6215276 6 16 C5.98018066 16.59538574 5.96036133 17.19077148 5.93994141 17.80419922 C5.84483874 20.49492153 5.73510158 23.18485148 5.625 25.875 C5.5940625 26.81214844 5.563125 27.74929687 5.53125 28.71484375 C5.49257813 29.61074219 5.45390625 30.50664063 5.4140625 31.4296875 C5.3826416 32.25710449 5.3512207 33.08452148 5.31884766 33.93701172 C5 36 5 36 3 38 C0.375 37.625 0.375 37.625 -2 37 C-2.0493651 32.05209823 -2.08570269 27.10433917 -2.10986328 22.15625 C-2.11993317 20.47230534 -2.13358988 18.78837821 -2.15087891 17.10449219 C-2.17508426 14.68680499 -2.18647296 12.26934857 -2.1953125 9.8515625 C-2.20563507 9.0963028 -2.21595764 8.34104309 -2.22659302 7.56289673 C-2.22699318 5.7070602 -2.12222716 3.8518072 -2 2 C-1.34 1.34 -0.68 0.68 0 0 Z " fill="#FFFFFF" transform="translate(258,5)"/>
<path d="M0 0 C2.52197266 -0.34057617 2.52197266 -0.34057617 5.6640625 -0.29296875 C6.78554687 -0.28330078 7.90703125 -0.27363281 9.0625 -0.26367188 C10.238125 -0.23853516 11.41375 -0.21339844 12.625 -0.1875 C14.40003906 -0.16719727 14.40003906 -0.16719727 16.2109375 -0.14648438 C19.14107539 -0.11103916 22.07031459 -0.06162769 25 0 C25.38218767 1.65614657 25.71395102 3.32457024 26 5 C25 6 25 6 23.23413086 6.11352539 C22.48526611 6.10828857 21.73640137 6.10305176 20.96484375 6.09765625 C20.15595703 6.09443359 19.34707031 6.09121094 18.51367188 6.08789062 C17.66353516 6.07951172 16.81339844 6.07113281 15.9375 6.0625 C15.08349609 6.05798828 14.22949219 6.05347656 13.34960938 6.04882812 C11.23304337 6.03700373 9.11651315 6.01906769 7 6 C7 8.64 7 11.28 7 14 C8.69769531 13.98259766 8.69769531 13.98259766 10.4296875 13.96484375 C11.91145669 13.95546546 13.39322765 13.9463653 14.875 13.9375 C15.62136719 13.92912109 16.36773437 13.92074219 17.13671875 13.91210938 C22.7734375 13.88671875 22.7734375 13.88671875 25 15 C24.67 16.65 24.34 18.3 24 20 C18.39 20 12.78 20 7 20 C7 23.3 7 26.6 7 30 C13.27 30 19.54 30 26 30 C26.33 31.65 26.66 33.3 27 35 C26 36 26 36 23.49975586 36.11352539 C22.41573486 36.10828857 21.33171387 36.10305176 20.21484375 36.09765625 C18.46010742 36.09282227 18.46010742 36.09282227 16.66992188 36.08789062 C15.43822266 36.07951172 14.20652344 36.07113281 12.9375 36.0625 C11.08415039 36.05573242 11.08415039 36.05573242 9.19335938 36.04882812 C6.12885883 36.03699608 3.06445279 36.02051173 0 36 C-2.20700347 32.44128909 -2.25767711 29.51052418 -2.265625 25.37109375 C-2.26820313 24.08912109 -2.27078125 22.80714844 -2.2734375 21.48632812 C-2.26924805 20.82189697 -2.26505859 20.15746582 -2.26074219 19.47290039 C-2.25001644 17.44061555 -2.26066373 15.40921096 -2.2734375 13.37695312 C-2.27085937 12.09626953 -2.26828125 10.81558594 -2.265625 9.49609375 C-2.26336914 8.32232178 -2.26111328 7.1485498 -2.25878906 5.93920898 C-2 3 -2 3 0 0 Z " fill="#FFFFFF" transform="translate(224,6)"/>
<path d="M0 0 C2.52197266 -0.34057617 2.52197266 -0.34057617 5.6640625 -0.29296875 C6.78554687 -0.28330078 7.90703125 -0.27363281 9.0625 -0.26367188 C10.238125 -0.23853516 11.41375 -0.21339844 12.625 -0.1875 C14.40003906 -0.16719727 14.40003906 -0.16719727 16.2109375 -0.14648438 C19.14107539 -0.11103916 22.07031459 -0.06162769 25 0 C25.38218767 1.65614657 25.71395102 3.32457024 26 5 C25 6 25 6 23.23413086 6.11352539 C22.48526611 6.10828857 21.73640137 6.10305176 20.96484375 6.09765625 C20.15595703 6.09443359 19.34707031 6.09121094 18.51367188 6.08789062 C17.66353516 6.07951172 16.81339844 6.07113281 15.9375 6.0625 C15.08349609 6.05798828 14.22949219 6.05347656 13.34960938 6.04882812 C11.23304337 6.03700373 9.11651315 6.01906769 7 6 C7 8.64 7 11.28 7 14 C8.69769531 13.98259766 8.69769531 13.98259766 10.4296875 13.96484375 C11.91145669 13.95546546 13.39322765 13.9463653 14.875 13.9375 C15.62136719 13.92912109 16.36773437 13.92074219 17.13671875 13.91210938 C22.7734375 13.88671875 22.7734375 13.88671875 25 15 C24.67 16.65 24.34 18.3 24 20 C18.39 20 12.78 20 7 20 C7 23.3 7 26.6 7 30 C13.27 30 19.54 30 26 30 C26.33 31.65 26.66 33.3 27 35 C26 36 26 36 23.49975586 36.11352539 C22.41573486 36.10828857 21.33171387 36.10305176 20.21484375 36.09765625 C18.46010742 36.09282227 18.46010742 36.09282227 16.66992188 36.08789062 C15.43822266 36.07951172 14.20652344 36.07113281 12.9375 36.0625 C11.08415039 36.05573242 11.08415039 36.05573242 9.19335938 36.04882812 C6.12885883 36.03699608 3.06445279 36.02051173 0 36 C-2.20700347 32.44128909 -2.25767711 29.51052418 -2.265625 25.37109375 C-2.26820312 24.08912109 -2.27078125 22.80714844 -2.2734375 21.48632812 C-2.26924805 20.82189697 -2.26505859 20.15746582 -2.26074219 19.47290039 C-2.25001644 17.44061555 -2.26066373 15.40921096 -2.2734375 13.37695312 C-2.27085938 12.09626953 -2.26828125 10.81558594 -2.265625 9.49609375 C-2.26336914 8.32232178 -2.26111328 7.1485498 -2.25878906 5.93920898 C-2 3 -2 3 0 0 Z " fill="#FFFFFF" transform="translate(121,6)"/>
<path d="M0 0 C4.34616043 2.42382024 6.57863723 4.7504572 8.125 9.5 C8.16625 10.263125 8.2075 11.02625 8.25 11.8125 C7.59 12.4725 6.93 13.1325 6.25 13.8125 C3.9375 13.8125 3.9375 13.8125 1.25 12.8125 C0.46625 11.801875 -0.3175 10.79125 -1.125 9.75 C-3.50497275 6.47646173 -3.50497275 6.47646173 -7.3125 6.1875 C-10.69606188 6.60256147 -10.69606188 6.60256147 -13.125 8.1875 C-15.61516774 12.21007865 -15.95113973 16.12881766 -15.75 20.8125 C-15.06364841 23.53829633 -14.17267512 25.33599146 -12.75 27.8125 C-9.70016004 29.33741998 -7.1076631 29.04812548 -3.75 28.8125 C-0.86984371 26.85810823 0.55056711 23.8067389 2.25 20.8125 C3.9 21.1425 5.55 21.4725 7.25 21.8125 C8.2253386 24.9158501 8.45312836 26.34981874 7.125 29.375 C4.63999851 32.60550193 1.90280451 34.98609774 -1.75 36.8125 C-8.12374058 37.41841318 -13.18312451 37.04128778 -18.75 33.8125 C-23.3825644 29.1799356 -24.82983278 24.36230658 -25.125 17.9375 C-24.98379461 12.06865112 -23.33059849 7.52111774 -19.25390625 3.2421875 C-13.31872197 -1.93814791 -7.26269986 -2.29985496 0 0 Z " fill="#FFFFFF" transform="translate(105.75,6.1875)"/>
<path d="M0 0 C3.20784721 -0.14622024 6.41482961 -0.23436651 9.625 -0.3125 C10.98044922 -0.3753418 10.98044922 -0.3753418 12.36328125 -0.43945312 C16.7793509 -0.52003834 20.01209939 -0.51925874 23.5859375 2.26953125 C27.06146453 6.20058853 27 7.82890182 27 13 C26.06978174 16.48831848 24.82726556 18.73818755 22 21 C18.71480525 22.09506492 16.26336585 22.09960608 12.8125 22.0625 C11.18248047 22.04896484 11.18248047 22.04896484 9.51953125 22.03515625 C8.68808594 22.02355469 7.85664063 22.01195313 7 22 C7.02320313 22.74765625 7.04640625 23.4953125 7.0703125 24.265625 C7.09738281 25.74289063 7.09738281 25.74289063 7.125 27.25 C7.14820313 28.22453125 7.17140625 29.1990625 7.1953125 30.203125 C6.99862781 33.0196498 6.44568916 34.60949036 5 37 C3.02 36.67 1.04 36.34 -1 36 C-2.66118719 31.01643844 -2.18593351 25.82171141 -2.18530273 20.60327148 C-2.18748849 18.57319146 -2.20565597 16.54365577 -2.22460938 14.51367188 C-2.22654297 13.23169922 -2.22847656 11.94972656 -2.23046875 10.62890625 C-2.23457764 9.45400635 -2.23868652 8.27910645 -2.24291992 7.06860352 C-2.01025249 4.12951112 -1.538101 2.47460143 0 0 Z M7 6 C7 9.3 7 12.6 7 16 C8.8871875 16.061875 8.8871875 16.061875 10.8125 16.125 C11.52019531 16.14820313 12.22789062 16.17140625 12.95703125 16.1953125 C15.31359719 16.13254462 15.31359719 16.13254462 18 14 C18.2502157 10.91634129 18.2502157 10.91634129 18 8 C14.17010894 6.19769832 11.21878192 5.80377759 7 6 Z " fill="#FFFFFF" transform="translate(190,6)"/>
</svg>
